<svg xmlns="http://www.w3.org/2000/svg" xmlns:xlink="http://www.w3.org/1999/xlink" width="500" zoomAndPan="magnify" viewBox="0 0 375 374.999991" height="500" preserveAspectRatio="xMidYMid meet" version="1.0"><defs><clipPath id="e84f246059"><path d="M 222 262 L 360 262 L 360 329 L 222 329 Z M 222 262 " clip-rule="nonzero"/></clipPath><clipPath id="9fecec54cf"><path d="M 275.292969 369.542969 L 222.855469 262.441406 L 307.054688 221.214844 L 359.492188 328.316406 Z M 275.292969 369.542969 " clip-rule="nonzero"/></clipPath><clipPath id="fd8ab6cfc8"><path d="M 275.292969 369.542969 L 222.855469 262.441406 L 307.054688 221.214844 L 359.492188 328.316406 Z M 275.292969 369.542969 " clip-rule="nonzero"/></clipPath><clipPath id="2582dda49d"><path d="M 76 140 L 204 140 L 204 351 L 76 351 Z M 76 140 " clip-rule="nonzero"/></clipPath><clipPath id="4873d8061f"><path d="M 22.65625 208.285156 L 203.90625 140.527344 L 256.953125 282.433594 L 75.707031 350.191406 Z M 22.65625 208.285156 " clip-rule="nonzero"/></clipPath><clipPath id="28d153c6bc"><path d="M 22.65625 208.285156 L 203.90625 140.527344 L 256.953125 282.433594 L 75.707031 350.191406 Z M 22.65625 208.285156 " clip-rule="nonzero"/></clipPath></defs><path fill="#c69427" d="M 371.027344 352.804688 L 268.90625 147.402344 C 238.835938 174.296875 212.378906 221.480469 213.851562 260.144531 L 244.75 321.074219 C 245.863281 323.261719 247.753906 324.949219 250.054688 325.804688 L 358.886719 366.292969 C 367.175781 369.375 374.964844 360.722656 371.027344 352.804688 Z M 187.765625 240.554688 C 187.503906 240.941406 187.261719 241.351562 187.042969 241.792969 L 148.273438 320.367188 C 147.171875 322.597656 145.261719 324.328125 142.925781 325.195312 L 32.085938 366.425781 C 23.84375 369.496094 16.070312 360.949219 19.898438 353.035156 L 184.429688 12.839844 C 187.960938 5.542969 198.34375 5.480469 201.953125 12.742188 L 265.414062 140.386719 C 230.617188 165.261719 203.367188 200.019531 187.765625 240.554688 " fill-opacity="1" fill-rule="nonzero"/><g clip-path="url(#e84f246059)"><g clip-path="url(#9fecec54cf)"><g clip-path="url(#fd8ab6cfc8)"><path fill="#ffde59" d="M 222.878906 262.492188 C 252.988281 281.945312 293.191406 297.714844 344.820312 298.515625 L 359.277344 328.035156 C 274.613281 322.136719 225.296875 264.394531 222.878906 262.492188 Z M 222.878906 262.492188 " fill-opacity="1" fill-rule="nonzero"/></g></g></g><g clip-path="url(#2582dda49d)"><g clip-path="url(#4873d8061f)"><g clip-path="url(#28d153c6bc)"><path fill="#ffde59" d="M 203.582031 140.648438 C 167.453125 186.140625 135.671875 248.488281 126.238281 331.625 L 76.34375 350.277344 C 99.21875 214.667969 200.128906 144.25 203.582031 140.648438 Z M 203.582031 140.648438 " fill-opacity="1" fill-rule="nonzero"/></g></g></g></svg>